<svg id="visual" viewBox="0 0 900 600" width="900" height="600" xmlns="http://www.w3.org/2000/svg" xmlns:xlink="http://www.w3.org/1999/xlink" version="1.1"><rect x="0" y="0" width="900" height="600" fill="#ffffff"></rect><defs><linearGradient id="grad1_0" x1="33.3%" y1="0%" x2="100%" y2="100%"><stop offset="20%" stop-color="#ffffff" stop-opacity="1"></stop><stop offset="80%" stop-color="#ffffff" stop-opacity="1"></stop></linearGradient></defs><defs><linearGradient id="grad2_0" x1="0%" y1="0%" x2="66.7%" y2="100%"><stop offset="20%" stop-color="#ffffff" stop-opacity="1"></stop><stop offset="80%" stop-color="#ffffff" stop-opacity="1"></stop></linearGradient></defs><g transform="translate(900, 0)"><path d="M0 432.7C-39 388.6 -77.9 344.6 -137.4 331.7C-196.8 318.8 -276.8 337.1 -305.9 305.9C-335.1 274.8 -313.5 194.3 -326.1 135.1C-338.8 75.9 -385.7 37.9 -432.7 0L0 0Z" fill="#49006E"></path></g><g transform="translate(0, 600)"><path d="M0 -432.7C65.8 -437 131.6 -441.4 165.6 -399.7C199.5 -358.1 201.5 -270.4 221.3 -221.3C241.1 -172.2 278.7 -161.7 316.9 -131.3C355.1 -100.8 393.9 -50.4 432.7 0L0 0Z" fill="#49006E"></path></g></svg>